# xmcd CD database file
#
# Track frame offsets:
#	180
#	21479
#	53007
#	78747
#	90553
#	114362
#	143717
#	168024
#	186310
#	202955
#	222656
#	233153
#
# Disc length: 3389 seconds
#
# Revision: 0
# Processed by: cddbd v1.5.2PL0 Copyright (c) Steve Scherf et al.
# Submitted via: CDex 1.70beta2
#
DISCID=a20d3b0c
DTITLE=Jennifer Scott Quartet - Interactive
DYEAR=1900
DGENRE=Jazz
TTITLE0=Chance
TTITLE1=These Are The Things
TTITLE2=Road To Traves
TTITLE3=Stars Fell On Alabama
TTITLE4=Half A Moon
TTITLE5=Angela
TTITLE6=Sleeping Bee
TTITLE7=Too Late Now
TTITLE8=Looking Out For Number One
TTITLE9=A Chance or Two
TTITLE10=I Want A Little Boy
TTITLE11=Think Of Me
EXTD=
EXTT0=
EXTT1=
EXTT2=
EXTT3=
EXTT4=
EXTT5=
EXTT6=
EXTT7=
EXTT8=
EXTT9=
EXTT10=
EXTT11=
PLAYORDER=
